<svg xmlns="http://www.w3.org/2000/svg" viewBox="0 0 386.29 190.99"><defs><style>.cls-1{fill-rule:evenodd;}</style></defs><g id="Layer_2" data-name="Layer 2"><g id="svg"><g id="svgg"><path id="path0" style='fill:white' class="cls-1" d="M112,1.2a142.4,142.4,0,0,0-6.21,14.7c-1.53,4.51-1.34,4.73-3.75-4.4-3-11.31-2.8-11-6.28-11C91.07.5,89.85,1.57,92.93,3c1.23.57,1.59,1,1.54,2,0,.69-.22,8-.42,16.25-.43,18.66-.84,23-2.33,24.58-1.36,1.43-1,1.46,4.44.32,4.41-.91,4.76-1.14,3-1.91L98,43.75l.19-14.4c.11-7.92.34-16.24.52-18.5l.31-4.1,1.57,5c2.35,7.48,3.66,12.59,3.66,14.24a2.15,2.15,0,0,0,.89,2c.79.42,1.13-.25,3.07-6.11C110.88,13.91,113.92,6,114.35,6c.6,0,.92,8.45.69,18.25-.14,5.5-.25,11.52-.25,13.39,0,3.21-.07,3.41-1.38,4s-1.3.61,1.07.77c2.8.19,4.08-.57,2.68-1.61-1.87-1.38-1-38.73.9-39.47C119.75.66,118.61,0,115.8,0c-2.6,0-3.09.15-3.78,1.2M138.56,6c-.16.25.19.79.77,1.2,1,.74,1,.76-2.48,9.66-1.94,4.91-5.06,13.08-6.92,18.16-3.24,8.82-3.46,9.26-4.85,9.5-2.42.43-2,1.24,1.08,1.95a41.92,41.92,0,0,1,5.63,1.81c4.71,2,6.39,2.1,7,.52.94-2.47-.18-3.31-1.58-1.19-.71,1.07-.74,1.07-3.07.18-2.72-1-2.7-.93-1.16-4.65.66-1.57,1.78-4.66,2.51-6.86,1.88-5.69,1.8-5.61,4.34-4.35,2.33,1.15,3,1.06,3-.43,0-.74-.35-1-1.46-1-3.59,0-3.63-.22-1.24-7.36,3.49-10.44,5.6-14.68,7.13-14.31,2.72.65,3.57,1.16,3.57,2.13a1.66,1.66,0,0,0,.47,1.27c.51.32,1.53-1.24,1.53-2.32,0-.65-4.57-2.42-7-2.71a15.1,15.1,0,0,1-3.11-.93c-2.09-.87-3.69-1-4.11-.3m-72,2.82c-1.65.91-4.41,2.34-6.13,3.16C57.14,13.53,56.24,15,58.55,15c1.41,0,1.14-.49,5.53,10,1.56,3.71,4.73,11,7,16.19,3.81,8.58,4.13,9.53,3.43,10.29-.82.92-1,2.52-.32,2.52a1.94,1.94,0,0,0,1-.73A4.21,4.21,0,0,1,77,52.21a6.56,6.56,0,0,0,1.83-.93,27.73,27.73,0,0,1,4.08-2c5-2.07,5.21-2.28,4.22-4.21s-1.8-2-1.8.06c0,1.62-4,4.56-4.69,3.44-.13-.2-1.13-2.39-2.23-4.85S75.8,38,75.09,36.38l-1.28-2.87,1.46-.75A6.86,6.86,0,0,1,77.76,32c1.2,0,1.29-.45.34-1.75-.66-.91-.74-.9-2.29.4-2.31,2-2.29,2-5.75-5.28-4.15-8.67-5.93-13.63-5.12-14.27,2-1.58,4-2.21,4.45-1.4s1.9,1.15,1.9.52a12.59,12.59,0,0,0-1.64-3.16L66.54,8.79M170.29,21.26a4.32,4.32,0,0,0,.59,1.2c.51.81.25,1.35-1.91,3.87-1.38,1.6-6.73,7.87-11.91,13.92-11.92,13.94-11.19,13.18-11.76,12.26-.25-.4-.61-.58-.8-.39-.65.65,2.55,3.79,4.95,4.86,7.22,3.22,12.39.77,20.94-9.92,4.59-5.74,8.1-14.26,6.32-15.36a3.15,3.15,0,0,1-.42-1.92,10.41,10.41,0,0,0-.72-3.38c-1-2.3-5.28-6.51-5.28-5.14m5,9.79c0,2.09-.68,3.25-7.43,12-7.31,9.44-11.73,13.43-14.91,13.46-2.74,0-1.23-2.29,8.63-13.23,5.49-6.1,9.7-11.08,11.5-13.59,1.66-2.31,2.15-2,2.21,1.39M34.34,30.64c-2.68.86-7.91,6.21-8.33,8.52s.49,3.72,1.16,1.89S55.59,68.68,55.1,70.62c-.59,2.35,1.5,1.51,4.2-1.69,2-2.42,2.28-4.63.32-3-.75.63-4.13-2.59-11.74-11.18-3.44-3.89-3.52-4-2.63-4.93C46.66,48.4,47.74,49,54,55c3.39,3.22,6.32,5.58,7.13,5.76s1.64.39,2,.49c4.28,1.31,7.35-4.84,4.18-8.39-1.85-2.06-2.41-1.57-1.07.93,1.14,2.12,1.22,2.62.59,3.61s-3.36-.61-7.62-4.93-8.44-6.75-10.95-6.38c-1,.14-1.43,0-1.29-.32,3.39-7.93-4.74-17.67-12.65-15.15m2.53,4c5.13,3.79,8.64,10,7.21,12.78-1.12,2.17-.82,2.37-7.65-5.14l-6.12-6.71,1.55-1.3c1.69-1.43,2.68-1.36,5,.37m155.72,16.1c-3.71,1.32-9.34,5.91-12,9.76-.47.69-1.85,2.71-3.05,4.5-6.15,9.09-13.58,13-17,9l-1.3-1.55,1-1.41c1.78-2.51,1.26-3-1.77-1.78-2.11.89-2.11,1.4-.06,4.28,6.23,8.7,15.09,5.88,25.84-8.23,6.87-9,12.9-12.76,16.24-10.07l1.5,1.21-1.13,1.2c-1.51,1.62-1.42,1.89.6,1.89s2.65-.7,1.78-1.75a2,2,0,0,1-.27-1.7c1.06-3.34-5.94-6.91-10.43-5.31m-180.7,17c-1.4,2.89-1.39,3.33.13,2.95,1-.25,2.48.56,7.62,4.08,3.52,2.42,10.06,6.85,14.52,9.86,6.71,4.51,8.13,5.67,8.13,6.66,0,1.56.69,1.52,1.42-.08.9-2,.75-2.85-.43-2.48-1.45.46-7.7-4-7.22-5.18.18-.45.67-1.78,1.08-2.95a7.27,7.27,0,0,1,1.2-2.4c.6-.37,9.28,2.12,11.06,3.17.75.45,1.42.71,1.5.58,1.69-2.61,2.71-9.45,1.07-7.21-.63.87-1.31.75-14-2.47-7.36-1.86-15.59-3.89-18.29-4.52a24.19,24.19,0,0,1-5.47-1.7c-.88-.88-1.09-.73-2.27,1.69m16.06,7c9.92,3.09,9.14,2.55,8.1,5.68-1.14,3.43-1.35,3.47-5.17.88C20,74,17.13,72,16.85,71.73c-.47-.47,1.89.18,11.1,3M3.33,94.46c-.86.55-1.56,5.07-1.18,7.66.28,2,.67,2.29,1.55,1.24.41-.5,1.61-.55,5.19-.24,2.56.22,6.37.48,8.47.58,4.9.23,4.71,0,4.52,4.69l-.16,4-1.53.3c-.84.17-5.31.31-9.93.31H1.86l-.16-1.34c-.19-1.6-1.21-2.09-1.62-.79-.32,1,.42,9.5.87,9.95.61.62,1.34-.48,1.34-2,0-2.28,1.12-2.39,20.84-2l16.09.34.29,1.17c.48,1.89,2,1.52,1.59-.39a32.6,32.6,0,0,1-.31-4.75c0-3.18-.71-4.28-1.28-2l-.31,1.2-8,.06-8,.07.14-3.9.15-3.89,2-.16a97.29,97.29,0,0,1,13.58,1.23c1,.18,1.67.63,1.84,1.28.54,2.07,1.53.6,1.61-2.39a32,32,0,0,1,.44-4.59c.28-1.27.19-1.62-.39-1.62-.43,0-.89.65-1.08,1.5s-.53,1.5-.77,1.5-2.87-.32-5.84-.72-7.87-1-10.89-1.29-7.19-.81-9.25-1.08-5.39-.62-7.39-.76l-3.63-.26.31-1.7c.35-1.83.31-1.9-.75-1.23m35.21,33.65c-2.46.87-9.27,5.5-13.69,9.3-7.08,6.12-14.14,8.76-16.94,6.34-1.47-1.27-1.42-2.45.13-3.16s1.59-1.4,0-1.81c-1.8-.45-3.43.11-2.73.94a3.27,3.27,0,0,1,.21,2.19c-.42,2.13,1.68,5.7,3.91,6.65C15.25,151,24,147.07,32.78,137.92a38.7,38.7,0,0,1,10.7-6.74c4.86-1.71,9.65,2.1,6.61,5.27-1.69,1.76-1.64,2.05.35,2.05,2.15,0,3.78-1.12,3-2.07a7,7,0,0,1-.89-2.27c-1-4.76-8.51-8-14-6m146.57,0c-.69.51-1,1.89-1.33,6.79-.57,7.46-1.08,8.78-3.49,9-22.17,1.59-26,26.45-4.61,29.91,4.87.78,4.6.62,5.61,3.37.75,2,.86,2.09,3,2.09,4,0,4.18-.5,4.62-16.38.2-7.49.6-15.76.89-18.37,1.61-14.52,1.3-17-2.14-17a5.09,5.09,0,0,0-2.51.63m134,0c-.69.51-1,1.89-1.33,6.79-.57,7.46-1.08,8.78-3.49,9-22.17,1.59-26,26.45-4.61,29.91,4.87.78,4.6.62,5.62,3.37.74,2,.84,2.09,2.95,2.09,4,0,4.18-.5,4.62-16.38.2-7.49.6-15.76.89-18.37,1.61-14.52,1.3-17-2.14-17a5.09,5.09,0,0,0-2.51.63m-72.17.88c-1.65.66-2.45,2.72-3.15,8.14-.82,6.32-1.22,6.82-5.92,7.34-5,.55-7,2.66-5.56,6.07.73,1.76,1.81,2.11,5.39,1.72,4.4-.47,4.4-.47,3.68,7.31-.34,3.66-1.06,8.91-1.6,11.66-1.5,7.59-1.28,8.25,2.73,8.25,3.21,0,4.32-3.47,6-18.75,1.2-10.8.85-10.29,7.44-11,3.64-.41,5.31-1.81,5.31-4.46,0-2.09-.34-2.22-6.25-2.4l-4-.13-.18-2a34.28,34.28,0,0,1,.74-6.66c1.08-5.57-.14-6.9-4.66-5.08m91.91,12.2c-5.5,2.53-6.56,3.44-6.56,5.7,0,3.58,1.25,3.83,6.65,1.34,4.57-2.11,5.93-2.19,7.31-.43,1.53,1.93,1,5.16-.87,5.18-17.74.2-22.93,12.32-8.56,20,11.07,5.89,13.46,3.91,16.51-13.73,2.91-16.8-2.5-23.54-14.48-18m-249.8.48c-1.48,1.48-1.52,1.77-2.58,17-.93,13.4-.87,14,1.55,14.24,3.06.37,3.74-.2,6-5.06,7-14.83,10.93-17.79,9-6.85-1.45,8.14-1,10,2.32,10,2.7,0,4.92-2.17,8.5-8.31,4.84-8.3,5.34-8.24,4.16.54-1.22,9.07-.25,11.9,3.76,11,3-.66,3.86-4.55,4.81-22.1.63-11.37-2.75-12-10.24-2-5.29,7.11-5.36,7.14-5.79,2.73-1-10.56-5.91-11.82-12.39-3.19-1.67,2.23-3.26,4.27-3.51,4.55s-.35-1.47-.13-4.75c.53-8.2-1.79-11.5-5.49-7.81m185.74.37c-10.49,3.19-15,20.81-6.8,26.38,13.06,8.84,29-3.5,23.61-18.32-2.33-6.44-10-10.12-16.81-8.06m-71.5.41c-5.42,1.64-8.45,6.19-7.27,10.89.39,1.55,4.3,5.52,8,8.14,5.74,4.05,3.13,8.3-3.93,6.41-5.06-1.35-7.18,4.08-2.44,6.21,6.6,2.95,13.6.85,16.2-4.87,2.37-5.21.24-9.55-7.18-14.66-5.83-4-1.2-7.81,4.92-4.05,2.21,1.36,4.38,1.25,5.38-.27,3.15-4.82-6.13-10.1-13.69-7.8m-61.4,1c-12.84,4.43-13.78,23.78-1.42,29.35,6.25,2.81,15.82.82,15.82-3.3,0-2.76-1.73-3.55-4.89-2.22-3.48,1.47-8.84.59-10-1.65-.46-.86-.15-1,3.33-2.06,13.29-3.83,15.7-6.61,12-13.82-3.3-6.41-8.3-8.54-14.79-6.3m238.77,1c-1.14,1.35-2.32,4.68-5.63,15.79-1.26,4.2-1.39,4.42-2.1,3.5-1.29-1.69-4.06-8.06-5.93-13.64-2.1-6.27-2.32-6.6-4.48-6.6-5.92,0-5.25,7.28,1.85,20.18,5.35,9.71,5,8.87,4.23,11.16a24.68,24.68,0,0,1-5.85,9.45c-3.36,3.61-3.42,3.8-1.73,5.48,2.28,2.28,5.27,1.36,8.84-2.73,5.73-6.54,16.43-32.94,16.43-40.52,0-3.52-3.37-4.76-5.63-2.07m-98.34,5.4c4.1,3.45,3.92,9.56-.4,13.11-4.63,3.82-10.64,1.2-10.62-4.62,0-7.51,6.38-12.39,11-8.49m-133.71.38c3.85,2.69,2.36,5.1-4.17,6.74-5.3,1.32-5.15,1.35-5.13-.85,0-4.61,5.86-8.3,9.3-5.89M180.79,152c1.35.86.66,15.29-.76,15.83-3.2,1.23-10.17-3.63-10.6-7.38-.59-5.28,2.46-8,10.11-8.87a2.52,2.52,0,0,1,1.25.42m134,0c1.35.86.66,15.29-.76,15.83-3.2,1.23-10.17-3.63-10.59-7.38-.6-5.28,2.45-8,10.1-8.87a2.52,2.52,0,0,1,1.25.42m31.13,10.46c-.22,5.21-2,6-7.13,3.39-5.61-2.86-3-6.41,4.5-6.18l2.75.09-.12,2.7m-125.56,4.13c-3.33,3.41-3.78,8.2-.93,9.93,4.25,2.6,8.86-.86,8.86-6.64,0-4.83-4.57-6.72-7.93-3.29"/></g></g></g></svg>