<?xml version="1.0" encoding="utf-8"?>
<svg viewBox="0 0 104.57 128.14" xmlns="http://www.w3.org/2000/svg" xmlns:bx="https://boxy-svg.com">
  <defs>
    <style>.cls-1{fill:none;}.cls-2{clip-path:url(#clip-path);}.cls-3{fill:#e4f9f5;}.cls-4{clip-path:url(#clip-path-2);}.cls-5{fill:#11999e;}.cls-6{font-size:26.04px;fill:#40514e;font-family:VarelaRound-Regular, Varela Round;}.cls-7{letter-spacing:-0.01em;}</style>
    <clipPath id="clip-path" transform="translate(0 0)">
      <rect class="cls-1" x="2.74" width="64.91" height="98.35"/>
    </clipPath>
    <clipPath id="clip-path-2" transform="translate(0 0)">
      <rect class="cls-1" x="68.21" y="33.72" width="31.19" height="31.19"/>
    </clipPath>
  </defs>
  <g id="Layer_2" data-name="Layer 2">
    <g id="Layer_1-2" data-name="Layer 1">
      <g class="cls-2">
        <path class="cls-3" d="M67.63,26.67V4.43a4.12,4.12,0,0,0-.09-.86,3.8,3.8,0,0,0-.25-.83A4.37,4.37,0,0,0,66.88,2a3.92,3.92,0,0,0-.55-.67,4.35,4.35,0,0,0-.67-.55,4.75,4.75,0,0,0-.77-.41,4.16,4.16,0,0,0-.83-.25A4.28,4.28,0,0,0,63.19,0H40.9A4.12,4.12,0,0,0,40,.09a4.06,4.06,0,0,0-.84.25,4.75,4.75,0,0,0-.77.41,4.35,4.35,0,0,0-.67.55,4.46,4.46,0,0,0-.55.67,4.37,4.37,0,0,0-.41.77,3.8,3.8,0,0,0-.25.83,4.12,4.12,0,0,0-.09.86v21a10.9,10.9,0,0,1-8.23,8.21H7.2a4.12,4.12,0,0,0-.86.09,4.44,4.44,0,0,0-.83.25,4.37,4.37,0,0,0-.77.41,4.54,4.54,0,0,0-.68.55,5,5,0,0,0-.55.67,4.75,4.75,0,0,0-.41.77,4.94,4.94,0,0,0-.25.83,4.21,4.21,0,0,0-.09.87V60.29a4.21,4.21,0,0,0,.09.87A4.94,4.94,0,0,0,3.1,62a4.75,4.75,0,0,0,.41.77,5,5,0,0,0,.55.67,4.54,4.54,0,0,0,.68.55,4.37,4.37,0,0,0,.77.41,4.44,4.44,0,0,0,.83.25,4.12,4.12,0,0,0,.86.09h21a10.9,10.9,0,0,1,8.23,8.21v21a4.12,4.12,0,0,0,.09.86,3.8,3.8,0,0,0,.25.83,4.37,4.37,0,0,0,.41.77,4.46,4.46,0,0,0,.55.67,4.35,4.35,0,0,0,.67.55,4.75,4.75,0,0,0,.77.41,4.06,4.06,0,0,0,.84.25,4.12,4.12,0,0,0,.86.09H63.19a4.28,4.28,0,0,0,.87-.09,4.16,4.16,0,0,0,.83-.25,4.75,4.75,0,0,0,.77-.41,4.35,4.35,0,0,0,.67-.55,3.92,3.92,0,0,0,.55-.67,4.37,4.37,0,0,0,.41-.77,3.8,3.8,0,0,0,.25-.83,4.12,4.12,0,0,0,.09-.86V71.68a4.12,4.12,0,0,0-.09-.86,3.8,3.8,0,0,0-.25-.83,4.37,4.37,0,0,0-.41-.77,4.46,4.46,0,0,0-.55-.67,4.35,4.35,0,0,0-.67-.55,4.75,4.75,0,0,0-.77-.41,4.06,4.06,0,0,0-.84-.25,4.12,4.12,0,0,0-.86-.09h-21A10.9,10.9,0,0,1,33.93,59V39.32a10.9,10.9,0,0,1,8.24-8.22h21a4.12,4.12,0,0,0,.86-.09,4.06,4.06,0,0,0,.84-.25,4.75,4.75,0,0,0,.77-.41,4.35,4.35,0,0,0,.67-.55,4.46,4.46,0,0,0,.55-.67,4.37,4.37,0,0,0,.41-.77,3.8,3.8,0,0,0,.25-.83A4.12,4.12,0,0,0,67.63,26.67Z" transform="translate(0 0)"/>
      </g>
      <g class="cls-4">
        <path class="cls-5" d="M72.66,33.72H95a4.28,4.28,0,0,1,.87.09,4.16,4.16,0,0,1,.83.25,4.37,4.37,0,0,1,.77.41,4.46,4.46,0,0,1,.67.55,4.6,4.6,0,0,1,.56.68,4.28,4.28,0,0,1,.41.76,4.78,4.78,0,0,1,.25.84,4.12,4.12,0,0,1,.09.86V60.47a4.12,4.12,0,0,1-.09.86,4.38,4.38,0,0,1-.66,1.61,5.1,5.1,0,0,1-.56.67,3.92,3.92,0,0,1-.67.55,4.37,4.37,0,0,1-.77.41,5,5,0,0,1-.83.26,5.12,5.12,0,0,1-.87.08H72.66a5.12,5.12,0,0,1-.87-.08,5,5,0,0,1-.83-.26,4.37,4.37,0,0,1-.77-.41,3.92,3.92,0,0,1-.67-.55,5.1,5.1,0,0,1-.56-.67,4.38,4.38,0,0,1-.66-1.61,4.12,4.12,0,0,1-.09-.86V38.16a4.12,4.12,0,0,1,.09-.86,4.78,4.78,0,0,1,.25-.84A4.28,4.28,0,0,1,69,35.7a4.6,4.6,0,0,1,.56-.68,4.46,4.46,0,0,1,.67-.55,4.37,4.37,0,0,1,.77-.41,4.16,4.16,0,0,1,.83-.25A4.28,4.28,0,0,1,72.66,33.72Z" transform="translate(0 0)" style="fill: rgb(255, 255, 255);"/>
      </g>
      <text class="cls-6" transform="translate(0 120.69) scale(0.78 1)" style="white-space: pre;">sharemeds</text>
    </g>
  </g>
  <path d="M 81.626 35.219 H 86.752 V 46.058 H 97.003 V 51.477 H 86.752 V 62.316 H 81.626 V 51.477 H 71.375 V 46.058 H 81.626 Z" style="paint-order: stroke markers; stroke: rgba(17, 153, 158, 0); fill: rgb(17, 153, 158);" bx:shape="cross 71.375 35.219 25.628 27.097 5.419 5.126 0.5 1@ce605d58"/>
</svg>